<?xml version="1.0" encoding="utf-8"?>
<!-- Generator: Adobe Illustrator 28.0.0, SVG Export Plug-In . SVG Version: 6.00 Build 0)  -->
<svg version="1.1" id="Capa_2_00000135678772867382107370000014550798071954197416_"
	 xmlns="http://www.w3.org/2000/svg" xmlns:xlink="http://www.w3.org/1999/xlink" x="0px" y="0px" viewBox="0 0 98.1 60.7"
	 style="enable-background:new 0 0 98.1 60.7;" xml:space="preserve">
<style type="text/css">
	.st0{fill:none;stroke:#424242;stroke-width:2;stroke-miterlimit:10;}
	.st1{fill:#515143;}
	.st2{fill:#FFFFFF;}
	.st3{fill:#E89600;}
</style>
<g id="Textos">
	<line class="st0" x1="28.6" y1="0.2" x2="28.6" y2="60.7"/>
	<path class="st1" d="M73.4,58.6c-0.6,0-1.2-0.1-1.9-0.2c-1.8-0.5-3.4-1.7-4.3-3.3c-1-1.7-1.2-3.6-0.7-5.4c0.2-0.8,0.5-1.5,0.9-2.1
		c-0.8,0-1.5,0-2.3-0.2c-1.8-0.5-3.4-1.7-4.3-3.3l0-0.1c-1.4-2.4-2.2-5-2.5-7.8c-3.1-2.7-4.6-6.8-3.7-10.9c0.1-0.5,0.3-0.9,0.6-1.2
		c-1.9-2.9-2.4-6.6-1-10.1c0.3-0.8,0.9-1.4,1.6-1.7C54,8.9,54,4.9,56,1.5c0.8-1.5,2.7-2,4.2-1.1l2,1.1l0,0l26,15
		c3.1,1.8,5.6,4.3,7.4,7.4c2.6,4.6,3.4,10.1,2,15.2c-1.4,5.1-4.8,9.5-9.3,12.1L77,57.6C75.9,58.3,74.6,58.6,73.4,58.6 M78.1,28.1
		c-1,0-2,0.3-2.8,0.8c-1.3,0.8-2.3,2-2.7,3.5c-0.4,1.5-0.2,3,0.6,4.3l0.1,0.1c1,1.6,1.2,3.6,0.7,5.4c-0.1,0.3-0.2,0.6-0.3,0.8
		l7.4-4.2c1.3-0.8,2.3-2,2.7-3.5c0.4-1.5,0.2-3-0.6-4.4c-0.5-0.9-1.2-1.6-2-2.1c-0.4-0.2-1.1-0.5-1.5-0.6
		C79.1,28.2,78.6,28.1,78.1,28.1"/>
	<path class="st2" d="M93.3,25.1c-1.6-2.8-3.8-4.9-6.4-6.4l-28-16.1l0,0c-0.2-0.2-0.6-0.1-0.7,0.2c-2.4,4.2-1,9.5,3.2,11.9l7.4,4.3
		L57,14.5c-0.3-0.1-0.6,0-0.7,0.3l0,0c-1.7,4.5,0.5,9.5,5,11.2l0.7,0.3l-4.6-1c-0.3-0.1-0.5,0.1-0.6,0.4l0,0
		c-0.8,3.6,0.8,7.1,3.7,9.1c0.1,2.7,0.9,5.4,2.3,7.8l0,0.1c1.3,2.2,4.1,3,6.3,1.7s3-4.1,1.7-6.3l0-0.1c-1.1-2-1.4-4.2-0.8-6.3
		c0.6-2.1,1.9-3.9,3.9-5c2-1.1,4.2-1.4,6.3-0.8c0.6,0.2,1.5,0.6,2,0.8c1.2,0.7,2.3,1.7,3,3c1.1,2,1.4,4.2,0.8,6.3
		c-0.6,2.1-1.9,3.9-3.9,5l-11.2,6.4c-2.2,1.3-3,4.1-1.7,6.3s4.1,3,6.3,1.7l11.2-6.4c4.2-2.4,7-6.3,8.2-10.6
		C96.2,34.1,95.7,29.3,93.3,25.1"/>
	<path class="st3" d="M71.6,40.4c0,2.5-2.1,4.6-4.6,4.6s-4.6-2.1-4.6-4.6s2.1-4.6,4.6-4.6S71.6,37.8,71.6,40.4"/>
	<path class="st3" d="M75.7,55.5L86.8,49c2.2-1.3,3-4.1,1.7-6.3s-4.1-3-6.3-1.7l-11.2,6.4c-2.2,1.3-3,4.1-1.7,6.3
		S73.5,56.7,75.7,55.5"/>
</g>
</svg>
