<?xml version="1.0" encoding="UTF-8"?><svg id="Capa_2" xmlns="http://www.w3.org/2000/svg" xmlns:xlink="http://www.w3.org/1999/xlink" viewBox="0 0 62.98 62.98"><defs><style>.cls-1{fill:url(#linear-gradient);}.cls-1,.cls-2{stroke-width:0px;}.cls-2{fill:#b24902;}</style><linearGradient id="linear-gradient" x1="6109.58" y1="-3500.09" x2="6172.55" y2="-3500.09" gradientTransform="translate(-3468.6 -6109.58) rotate(90)" gradientUnits="userSpaceOnUse"><stop offset="0" stop-color="#fff"/><stop offset=".26" stop-color="#fafafb"/><stop offset=".54" stop-color="#edeef1"/><stop offset=".84" stop-color="#d7dae0"/><stop offset="1" stop-color="#c8ccd5"/></linearGradient></defs><g id="Capa_3"><circle class="cls-1" cx="31.49" cy="31.49" r="31.49"/><path class="cls-2" d="m42.8,21.29h-2.61c-.23,0-.42.19-.42.42v2.54c0,.23-.19.42-.42.42h-14.3c-.23,0-.42-.19-.42-.42v-2.54c0-.23-.19-.42-.42-.42h-2.53c-.93,0-1.69.76-1.69,1.69v25.36c0,.93.76,1.69,1.69,1.69h21.13c.93,0,1.69-.76,1.69-1.69v-25.36c0-.93-.76-1.69-1.69-1.69Zm-12.46,8.36h8.55c.58,0,1.06.47,1.06,1.06s-.47,1.06-1.06,1.06h-8.55c-.58,0-1.06-.47-1.06-1.06s.47-1.06,1.06-1.06Zm0,4.23h8.55c.58,0,1.06.47,1.06,1.06s-.47,1.06-1.06,1.06h-8.55c-.58,0-1.06-.47-1.06-1.06s.47-1.06,1.06-1.06Zm-4.65,6.34h-.33c-.58,0-1.06-.47-1.06-1.06s.47-1.06,1.06-1.06h.33c.58,0,1.06.47,1.06,1.06s-.47,1.06-1.06,1.06Zm0-4.23h-.33c-.58,0-1.06-.47-1.06-1.06s.47-1.06,1.06-1.06h.33c.58,0,1.06.47,1.06,1.06s-.47,1.06-1.06,1.06Zm0-4.23h-.33c-.58,0-1.06-.47-1.06-1.06s.47-1.06,1.06-1.06h.33c.58,0,1.06.47,1.06,1.06s-.47,1.06-1.06,1.06Zm13.31,8.45h-8.66c-.58,0-1.06-.47-1.06-1.06s.47-1.06,1.06-1.06h8.66c.58,0,1.06.47,1.06,1.06s-.47,1.06-1.06,1.06Z"/><path class="cls-2" d="m35.42,18.52c-.63-.21-1.08-.79-1.07-1.46.02-1.16-.92-2.1-2.07-2.1h-.09c-1.12,0-2.11.89-2.07,2.01.03.7-.41,1.32-1.07,1.54-1.34.45-2.32.87-2.32,2.36v1.27c0,.23.19.42.42.42h10.15c.23,0,.42-.19.42-.42v-1.27c0-1.49-.97-1.91-2.31-2.36Z"/></g></svg>