<?xml version="1.0" encoding="UTF-8"?><svg id="Capa_2" xmlns="http://www.w3.org/2000/svg" xmlns:xlink="http://www.w3.org/1999/xlink" viewBox="0 0 62.98 62.98"><defs><style>.cls-1{fill:url(#linear-gradient);}.cls-1,.cls-2{stroke-width:0px;}.cls-2{fill:#b24902;}</style><linearGradient id="linear-gradient" x1="6499.79" y1="-3102.37" x2="6562.77" y2="-3102.37" gradientTransform="translate(2456.1 -6780.53) rotate(135)" gradientUnits="userSpaceOnUse"><stop offset="0" stop-color="#fff"/><stop offset=".26" stop-color="#fafafb"/><stop offset=".54" stop-color="#edeef1"/><stop offset=".84" stop-color="#d7dae0"/><stop offset="1" stop-color="#c8ccd5"/></linearGradient></defs><g id="Capa_3"><circle class="cls-1" cx="31.49" cy="31.49" r="31.49" transform="translate(-13.04 31.49) rotate(-45)"/><path class="cls-2" d="m41.62,20.3h-3.54c-.49,0-.88.4-.88.88v13.22h5.31v-13.22c0-.49-.4-.88-.88-.88Z"/><path class="cls-2" d="m40.46,37.36c-1.67,1.67-3.89,2.59-6.25,2.59s-4.58-.92-6.25-2.59c-3.45-3.45-3.45-9.06,0-12.51,1.67-1.67,3.89-2.59,6.25-2.59.26,0,.52.02.78.04v-3.54c-.26-.02-.52-.04-.78-.04-3.17,0-6.34,1.21-8.75,3.63-4.25,4.25-4.76,10.81-1.55,15.62l-2.44,2.44-.57-.57c-.17-.17-.45-.17-.63,0l-7.19,7.19c-.35.35-.35.91,0,1.25l3.34,3.34c.35.35.91.35,1.25,0l7.19-7.19c.17-.17.17-.45,0-.63l-.57-.57,2.34-2.34c2.23,1.73,4.9,2.61,7.58,2.61,3.17,0,6.34-1.21,8.75-3.63.98-.98,1.75-2.08,2.33-3.25h-4.17c-.21.26-.42.51-.66.75Zm-9.9-9.99c-.49,0-.88.4-.88.88v6.14h5.31v-6.14c0-.49-.4-.88-.88-.88h-3.54Zm18.57-2.65h-3.54c-.49,0-.88.4-.88.88v8.79h5.31v-8.79c0-.49-.4-.88-.88-.88Z"/></g></svg>