<?xml version="1.0" encoding="UTF-8"?><svg id="Capa_2" xmlns="http://www.w3.org/2000/svg" xmlns:xlink="http://www.w3.org/1999/xlink" viewBox="0 0 62.98 62.98"><defs><style>.cls-1{fill:url(#linear-gradient);}.cls-1,.cls-2{stroke-width:0px;}.cls-2{fill:#b24902;}</style><linearGradient id="linear-gradient" x1="6497.11" y1="-3494.56" x2="6560.09" y2="-3494.56" gradientTransform="translate(-3463.07 -6497.11) rotate(90)" gradientUnits="userSpaceOnUse"><stop offset="0" stop-color="#fff"/><stop offset=".26" stop-color="#fafafb"/><stop offset=".54" stop-color="#edeef1"/><stop offset=".84" stop-color="#d7dae0"/><stop offset="1" stop-color="#c8ccd5"/></linearGradient></defs><g id="Capa_3"><circle class="cls-1" cx="31.49" cy="31.49" r="31.49"/><path class="cls-2" d="m42.01,31.27h-1.27c-.7,0-1.27.57-1.27,1.27s.57,1.27,1.27,1.27h1.27c.7,0,1.27-.57,1.27-1.27s-.57-1.27-1.27-1.27Zm-9.72,8.45c-.7,0-1.27.57-1.27,1.27v1.27c0,.7.57,1.27,1.27,1.27s1.27-.57,1.27-1.27v-1.27c0-.7-.57-1.27-1.27-1.27Zm-8.45-8.45h-1.27c-.7,0-1.27.57-1.27,1.27s.57,1.27,1.27,1.27h1.27c.7,0,1.27-.57,1.27-1.27s-.57-1.27-1.27-1.27Zm8.45-9.72c-.7,0-1.27.57-1.27,1.27v1.27c0,.7.57,1.27,1.27,1.27s1.27-.57,1.27-1.27v-1.27c0-.7-.57-1.27-1.27-1.27Z"/><path class="cls-2" d="m32.28,16.06c-9.1,0-16.48,7.38-16.48,16.48s7.38,16.48,16.48,16.48,16.48-7.38,16.48-16.48-7.38-16.48-16.48-16.48Zm0,28.74c-6.76,0-12.26-5.5-12.26-12.26s5.5-12.26,12.26-12.26,12.26,5.5,12.26,12.26-5.5,12.26-12.26,12.26Zm5.53-19.3l-4.99,4.99c-.17-.04-.35-.06-.53-.06-.27,0-.52.05-.76.13l-3.87-3.87c-.5-.5-1.3-.5-1.79,0-.5.5-.5,1.3,0,1.79l3.95,3.95c-.04.17-.06.35-.06.53,0,1.4,1.14,2.54,2.54,2.54s2.54-1.14,2.54-2.54c0-.27-.05-.52-.13-.76l4.91-4.92c.5-.5.5-1.3,0-1.79s-1.3-.5-1.79,0Z"/></g></svg>