<?xml version="1.0" encoding="UTF-8"?><svg id="Capa_2" xmlns="http://www.w3.org/2000/svg" xmlns:xlink="http://www.w3.org/1999/xlink" viewBox="0 0 62.98 62.98"><defs><style>.cls-1{fill:url(#linear-gradient);}.cls-1,.cls-2{stroke-width:0px;}.cls-2{fill:#b24902;}</style><linearGradient id="linear-gradient" x1="5712.58" y1="-3891.09" x2="5775.55" y2="-3891.09" gradientTransform="translate(4727.9 -5075.23) rotate(166.72)" gradientUnits="userSpaceOnUse"><stop offset="0" stop-color="#fff"/><stop offset=".26" stop-color="#fafafb"/><stop offset=".54" stop-color="#edeef1"/><stop offset=".84" stop-color="#d7dae0"/><stop offset="1" stop-color="#c8ccd5"/></linearGradient></defs><g id="Capa_3"><circle class="cls-1" cx="31.49" cy="31.49" r="31.49" transform="translate(-6.39 54.9) rotate(-76.72)"/><path class="cls-2" d="m36.42,29.55c0,2.81-2.21,5.09-4.92,5.09-2.71,0-4.92-2.28-4.92-5.09s2.21-5.09,4.92-5.09c.22,0,.44.02.66.05l2.82-2.82c-1.06-.49-2.24-.77-3.48-.77-4.66,0-8.46,3.87-8.46,8.63s3.79,8.63,8.46,8.63c4.66,0,8.46-3.87,8.46-8.63,0-1.21-.25-2.35-.69-3.4l-2.88,2.88c.02.17.03.34.03.52Zm3.92,11.4c3.4-2.65,5.6-6.76,5.6-11.4,0-1.58-.26-3.09-.73-4.51l-.79.79c-.58.58-1.34.89-2.16.89-.09,0-.17-.02-.26-.02.25.91.39,1.87.39,2.86,0,6.01-4.89,10.91-10.91,10.91-6.01,0-10.91-4.89-10.91-10.91s4.89-10.91,10.91-10.91c1.15,0,2.25.18,3.29.51.02-.77.32-1.52.89-2.09l.99-.99c-1.61-.62-3.34-.97-5.16-.97-7.96,0-14.44,6.48-14.44,14.44,0,4.94,2.5,9.31,6.29,11.91l-2.38,6.34c-.26.69.09,1.45.78,1.71.15.06.31.08.47.08.54,0,1.04-.33,1.24-.86l2.24-5.97c1.52.67,3.18,1.08,4.92,1.18v4.32c0,.73.59,1.33,1.33,1.33s1.33-.59,1.33-1.33v-4.39c1.71-.21,3.32-.72,4.79-1.47l2.37,6.33c.2.53.7.86,1.24.86.15,0,.31-.03.47-.08.69-.26,1.03-1.02.78-1.71l-2.57-6.86Z"/><path class="cls-2" d="m45.65,19.8l-2.51-.97c-.22-.09-.4-.26-.48-.48l-.97-2.52c-.13-.34-.46-.54-.78-.54-.21,0-.42.08-.59.25l-3.08,3.08c-.23.23-.31.58-.19.89l.81,2.11-5.29,5.29c-.33-.13-.69-.21-1.06-.21-1.57,0-2.84,1.27-2.84,2.84s1.27,2.84,2.84,2.84c1.57,0,2.84-1.27,2.84-2.84,0-.38-.08-.73-.21-1.06l5.1-5.1,2.75,1.06c.1.04.2.06.3.06.22,0,.43-.09.59-.25l3.08-3.08c.43-.43.27-1.16-.29-1.37Z"/></g></svg>