<?xml version="1.0" encoding="UTF-8"?><svg id="Capa_2" xmlns="http://www.w3.org/2000/svg" xmlns:xlink="http://www.w3.org/1999/xlink" viewBox="0 0 62.98 62.98"><defs><style>.cls-1{fill:url(#linear-gradient);}.cls-1,.cls-2{stroke-width:0px;}.cls-2{fill:#b24902;}</style><linearGradient id="linear-gradient" x1="6100.11" y1="-3885.56" x2="6163.09" y2="-3885.56" gradientTransform="translate(5106.34 -5158.89) rotate(166.72)" gradientUnits="userSpaceOnUse"><stop offset="0" stop-color="#fff"/><stop offset=".26" stop-color="#fafafb"/><stop offset=".54" stop-color="#edeef1"/><stop offset=".84" stop-color="#d7dae0"/><stop offset="1" stop-color="#c8ccd5"/></linearGradient></defs><g id="Capa_3"><circle class="cls-1" cx="31.49" cy="31.49" r="31.49" transform="translate(-6.39 54.9) rotate(-76.72)"/><path class="cls-2" d="m33.7,31.09c0-.49-.4-.88-.88-.88h-3.54c-.49,0-.88.4-.88.88v12.38h5.31v-12.38Zm7.52,1.77c0-.49-.4-.88-.88-.88h-3.54c-.49,0-.88.4-.88.88v10.61h5.31v-10.61Zm3.54,12.82h-26.53c-.73,0-1.33.59-1.33,1.33s.59,1.33,1.33,1.33h26.53c.73,0,1.33-.59,1.33-1.33s-.59-1.33-1.33-1.33Zm-18.57-10.17c0-.49-.4-.88-.88-.88h-3.54c-.49,0-.88.4-.88.88v7.96h5.31v-7.96Z"/><path class="cls-2" d="m42.5,19.16l-3.98.57c-.64.09-.9.87-.44,1.33l.92.92-3.21,3.21-5.27-4c-.49-.37-1.17-.36-1.64.03l-8.4,6.91c-.57.47-.65,1.3-.18,1.87.26.32.64.48,1.03.48.3,0,.59-.1.84-.3l7.59-6.24,5.36,4.06c.53.4,1.27.35,1.74-.12l4.03-4.03.61.61c.46.46,1.24.2,1.33-.44l.57-3.98c.07-.52-.37-.96-.89-.89Z"/></g></svg>