<?xml version="1.0" encoding="UTF-8"?><svg id="Capa_2" xmlns="http://www.w3.org/2000/svg" viewBox="0 0 145.16 41.38"><defs><style>.cls-1{fill:#fff;stroke-width:0px;}</style></defs><g id="Capa_3"><path class="cls-1" d="m48.59,41.38c-.16,0-.28-.13-.28-.28,0-1.25,1.02-2.29,2.27-2.32l2.9-.06c.53-.01.98-.42,1.01-.92,0-.02,0-.04,0-.05,0-.06,0-.12,0-.18-.11-3.28-2.87-5.92-6.16-5.87-2.98.05-5.47,2.22-5.91,5.17-.02.15.02.3.13.42.1.12.25.18.41.17.25,0,.46-.19.49-.43.34-2.48,2.48-4.34,4.99-4.34,2.35,0,4.37,1.6,4.9,3.89.08.35,0,.7-.23.98-.23.28-.56.43-.92.42-.52-.01-.97-.39-1.09-.91-.28-1.25-1.38-2.12-2.66-2.12-1.16,0-2.2.74-2.58,1.84-.05.14-.03.29.06.42.09.12.22.19.37.19.2,0,.37-.13.44-.33.26-.75.97-1.25,1.76-1.25,1.03,0,1.86.83,1.86,1.86,0,.16-.13.28-.28.28s-.28-.13-.28-.28c0-.71-.58-1.29-1.29-1.29-.55,0-1.04.35-1.22.87-.15.42-.54.71-.97.71-.34,0-.64-.16-.84-.43-.19-.27-.24-.62-.13-.93.46-1.33,1.71-2.22,3.12-2.22,1.55,0,2.87,1.05,3.21,2.56.06.27.29.46.55.47.18,0,.35-.07.47-.21.11-.14.15-.32.11-.49-.47-2.03-2.26-3.45-4.35-3.45-2.22,0-4.12,1.66-4.42,3.85-.07.52-.5.9-1.03.92-.32.01-.63-.12-.85-.36-.22-.24-.31-.56-.26-.88.48-3.22,3.2-5.6,6.46-5.65.03,0,.07,0,.1,0,3.55,0,6.52,2.86,6.64,6.42,0,.06,0,.13,0,.19,0,.03,0,.06,0,.1-.06.8-.74,1.44-1.57,1.45l-2.9.06c-.95.02-1.72.8-1.72,1.75,0,.16-.13.28-.28.28Z"/><path class="cls-1" d="m74.47,35.15c0,1.34.59,2.15,1.45,2.15.91,0,1.56-.7,1.56-1.61h.32c0,1.56-1.02,2.42-2.85,2.42-2.36,0-3.6-1.4-3.6-4.08V3.76c0-2.42-.91-3.44-3.22-3.44V0h4.03C73.72,0,74.47.7,74.47,2.04v33.11Z"/><path class="cls-1" d="m124.37,8.02c6.21,0,10.69,3.39,10.69,8.07,0,2.05-1.22,3.07-5.31,4.35l-15.81,4.99c.7,7.36,4.55,11.91,10.43,11.91,4.99,0,8.83-2.24,11.07-6.53l.32.13c-2.18,4.61-6.34,7.17-11.39,7.17-8.71,0-14.53-6.02-14.53-15.04s5.83-15.04,14.53-15.04Zm4.55,12.1c1.66-.51,2.43-1.54,2.43-3.33,0-4.87-2.88-8.26-6.98-8.26-6.34,0-10.56,5.76-10.56,14.53,0,.64,0,1.22.06,1.79l15.04-4.74Z"/><path class="cls-1" d="m141.82,35.15c0,1.34.59,2.15,1.45,2.15.91,0,1.56-.7,1.56-1.61h.32c0,1.56-1.02,2.42-2.85,2.42-2.36,0-3.6-1.4-3.6-4.08V3.76c0-2.42-.91-3.44-3.22-3.44V0h4.03C141.07,0,141.82.7,141.82,2.04v33.11Z"/><path class="cls-1" d="m3.1,8.23C3.1,4.07,7.09.73,11.98.73s8.14,3.09,8.14,8.31c0,1.38.98,2.36,2.36,2.36s2.36-.98,2.36-2.36C24.84,3.09,18.57,0,12.38,0,5.71,0,.17,4.07.17,9.12c0,13.93,22.88,10.91,22.88,21.09,0,4.72-3.58,7.33-9.85,7.33-.29,0-.57,0-.85-.01-4.74-.21-7.62-3.26-7.62-8.29,0-1.38-.98-2.36-2.36-2.36s-2.36.98-2.36,2.36c0,5.95,6.27,9.04,12.46,9.04.01,0,.11,0,.13,0,0,0,0,0,0,0,.07,0,.13,0,.2,0,7.98,0,13.19-3.67,13.19-9.37C25.98,14.9,3.1,17.35,3.1,8.23Z"/><path class="cls-1" d="m84.35,16.98c-1.09,0-1.86-.77-1.86-1.86,0-4.1,4.61-7.11,10.75-7.11,6.59,0,10.56,3.46,10.56,9.22v17.35c0,1.6.7,2.56,1.73,2.56,1.09,0,1.86-.83,1.86-1.92h.38c0,1.86-1.22,2.88-3.39,2.88-2.82,0-4.29-1.66-4.29-4.87v-4.22c-1.41,5.63-5.57,9.09-11.27,9.09-4.99,0-8.26-2.56-8.26-6.47,0-6.59,7.49-10.69,19.52-10.69v-3.91c0-5.44-2.43-8.51-6.79-8.51s-7.11,2.69-7.11,6.59c0,1.09-.77,1.86-1.86,1.86Zm15.75,4.48c-10.18,0-15.56,3.58-15.56,10.37,0,3.33,1.98,5.31,5.19,5.31,6.02,0,10.37-5.31,10.37-12.55v-3.14Z"/><path class="cls-1" d="m96.97.16c.28-.15.61-.2.95-.1.34.05.61.26.73.56.17.26.17.56.06.87-.17.31-.39.51-.73.61l-7.04,2.3-.34-.61,6.37-3.63Z"/><path class="cls-1" d="m40.51,37.99h-8.29c-.16,0-.3-.13-.3-.3s.13-.3.3-.3h8.29c.16,0,.3.13.3.3s-.13.3-.3.3Z"/><path class="cls-1" d="m32.8,35.48s-.03,0-.05,0l-2.11-.35c-.16-.03-.27-.18-.24-.34.03-.16.18-.27.34-.24l2.11.35c.16.03.27.18.24.34-.02.15-.15.25-.29.25Z"/><path class="cls-1" d="m40.52,36.75s-.03,0-.05,0l-5.78-.95c-.16-.03-.27-.18-.24-.34.03-.16.18-.27.34-.24l5.78.95c.16.03.27.18.24.34-.02.15-.15.25-.29.25Z"/><path class="cls-1" d="m40.87,35.44s-.07,0-.1-.02l-11.27-4.19c-.15-.06-.23-.23-.17-.38.06-.15.23-.23.38-.17l11.27,4.19c.15.06.23.23.17.38-.04.12-.16.19-.28.19Z"/><path class="cls-1" d="m31.28,28.2c-.05,0-.1-.01-.15-.04l-1.96-1.14c-.14-.08-.19-.26-.11-.41.08-.14.26-.19.41-.11l1.96,1.14c.14.08.19.26.11.41-.06.09-.15.15-.26.15Z"/><path class="cls-1" d="m41.41,34.08c-.05,0-.1-.01-.15-.04l-8.14-4.73c-.14-.08-.19-.26-.11-.41.08-.14.26-.19.41-.11l8.14,4.73c.14.08.19.26.11.41-.06.09-.15.15-.26.15Z"/><path class="cls-1" d="m42.32,32.84c-.07,0-.14-.02-.19-.07l-12.31-10.34c-.13-.11-.14-.29-.04-.42.11-.13.29-.14.42-.04l12.31,10.34c.13.11.14.29.04.42-.06.07-.14.11-.23.11Z"/><path class="cls-1" d="m33.27,19.77c-.09,0-.17-.04-.23-.11l-1.47-1.77c-.1-.13-.09-.31.04-.42.13-.1.31-.09.42.04l1.47,1.77c.1.13.09.31-.04.42-.06.05-.12.07-.19.07Z"/><path class="cls-1" d="m43.31,31.84c-.09,0-.17-.04-.23-.11l-8.71-10.48c-.1-.13-.09-.31.04-.42.13-.1.31-.09.42.04l8.71,10.48c.1.13.09.31-.04.42-.06.05-.12.07-.19.07Z"/><path class="cls-1" d="m44.57,31.06c-.1,0-.2-.05-.26-.15l-9.83-17.05c-.08-.14-.03-.32.11-.41.14-.08.32-.03.41.11l9.83,17.05c.08.14.03.32-.11.41-.05.03-.1.04-.15.04Z"/><path class="cls-1" d="m39.55,13.19c-.12,0-.23-.07-.28-.19l-.84-2.29c-.06-.15.02-.32.18-.38.15-.06.32.02.38.18l.84,2.29c.06.15-.02.32-.18.38-.03.01-.07.02-.1.02Z"/><path class="cls-1" d="m45.9,30.5c-.12,0-.23-.07-.28-.19l-5.59-15.25c-.06-.15.02-.32.18-.38.15-.06.32.02.38.18l5.59,15.25c.06.15-.02.32-.18.38-.03.01-.07.02-.1.02Z"/><path class="cls-1" d="m47.27,30.21c-.14,0-.27-.1-.29-.25l-3.75-21.35c-.03-.16.08-.32.24-.34.16-.03.32.08.34.24l3.75,21.35c.03.16-.08.32-.24.34-.02,0-.03,0-.05,0Z"/><path class="cls-1" d="m65.12,37.99h-8.65c-.16,0-.3-.13-.3-.3s.13-.3.3-.3h8.65c.16,0,.3.13.3.3s-.13.3-.3.3Z"/><path class="cls-1" d="m64.4,35.48c-.14,0-.27-.1-.29-.25-.03-.16.08-.31.24-.34l2.11-.35c.16-.03.31.08.34.24.03.16-.08.31-.24.34l-2.11.35s-.03,0-.05,0Z"/><path class="cls-1" d="m56.37,36.8c-.14,0-.27-.1-.29-.25-.03-.16.08-.31.24-.34l6.08-1c.16-.03.31.08.34.24.03.16-.08.31-.24.34l-6.08,1s-.03,0-.05,0Z"/><path class="cls-1" d="m56.1,35.58c-.12,0-.23-.07-.28-.19-.06-.15.02-.32.17-.38l11.64-4.32c.15-.06.32.02.38.17s-.02.32-.17.38l-11.64,4.32s-.07.02-.1.02Z"/><path class="cls-1" d="m66.06,28.2c-.1,0-.2-.05-.26-.15-.08-.14-.03-.32.11-.41l1.96-1.14c.14-.08.32-.03.41.11.08.14.03.32-.11.41l-1.96,1.14s-.1.04-.15.04Z"/><path class="cls-1" d="m55.5,34.33c-.1,0-.2-.05-.26-.15-.08-.14-.03-.32.11-.41l8.57-4.98c.14-.08.32-.03.41.11s.03.32-.11.41l-8.57,4.98s-.1.04-.15.04Z"/><path class="cls-1" d="m54.7,33.11c-.08,0-.17-.04-.23-.11-.11-.13-.09-.31.04-.42l12.62-10.6c.13-.11.31-.09.42.04.11.13.09.31-.04.42l-12.62,10.6c-.06.05-.12.07-.19.07Z"/><path class="cls-1" d="m64.07,19.77c-.07,0-.13-.02-.19-.07-.13-.1-.14-.29-.04-.42l1.47-1.77c.1-.13.29-.14.42-.04.13.1.14.29.04.42l-1.47,1.77c-.06.07-.14.11-.23.11Z"/><path class="cls-1" d="m53.82,32.1c-.07,0-.13-.02-.19-.07-.13-.1-.14-.29-.04-.42l8.92-10.73c.1-.13.29-.14.42-.04.13.1.14.29.04.42l-8.92,10.73c-.06.07-.14.11-.23.11Z"/><path class="cls-1" d="m52.64,31.31c-.05,0-.1-.01-.15-.04-.14-.08-.19-.26-.11-.41l9.97-17.29c.08-.14.26-.19.41-.11.14.08.19.26.11.41l-9.97,17.29c-.05.1-.15.15-.26.15Z"/><path class="cls-1" d="m57.79,13.19s-.07,0-.1-.02c-.15-.06-.23-.23-.18-.38l.84-2.29c.06-.15.23-.23.38-.18.15.06.23.23.18.38l-.84,2.29c-.04.12-.16.19-.28.19Z"/><path class="cls-1" d="m51.4,30.64s-.07,0-.1-.02c-.15-.06-.23-.23-.18-.38l5.64-15.39c.06-.15.23-.23.38-.18.15.06.23.23.18.38l-5.64,15.39c-.04.12-.16.19-.28.19Z"/><path class="cls-1" d="m50.07,30.21s-.03,0-.05,0c-.16-.03-.27-.18-.24-.34l3.75-21.35c.03-.16.18-.27.34-.24.16.03.27.18.24.34l-3.75,21.35c-.03.14-.15.25-.29.25Z"/><path class="cls-1" d="m48.69,10.72c-.16,0-.3-.13-.3-.3v-2.54c0-.16.13-.3.3-.3s.3.13.3.3v2.54c0,.16-.13.3-.3.3Z"/><path class="cls-1" d="m48.69,30.06c-.16,0-.3-.13-.3-.3V12.62c0-.16.13-.3.3-.3s.3.13.3.3v17.14c0,.16-.13.3-.3.3Z"/></g></svg>