<?xml version="1.0" encoding="UTF-8"?><svg id="Capa_2" xmlns="http://www.w3.org/2000/svg" viewBox="0 0 26.33 36.56"><defs><style>.cls-1{fill:#fff;stroke-width:0px;}</style></defs><g id="Capa_3"><path class="cls-1" d="m23.08,4.72h-3.51l2.36,3.5h1.28v24.84H3.12V8.22h1.28l2.36-3.5h-3.51c-1.8,0-3.25,1.46-3.25,3.25v25.33c0,1.8,1.46,3.25,3.25,3.25h19.83c1.8,0,3.25-1.46,3.25-3.25V7.98c0-1.8-1.46-3.25-3.25-3.25Z"/><path class="cls-1" d="m19.73,8.22l-2.36-3.5-1.28-1.9-.06.03c0-1.57-1.29-2.85-2.86-2.85s-2.85,1.28-2.86,2.85l-.06-.03-1.28,1.9-2.36,3.5-.67,1,7.23.04,7.24-.04-.67-1ZM13.17,1.86c.55,0,1,.45,1,1s-.45,1-1,1-1-.45-1-1,.45-1,1-1Z"/><rect class="cls-1" x="5.78" y="14.27" width="15.04" height="1.04"/><rect class="cls-1" x="5.78" y="17.9" width="15.04" height="1.04"/><rect class="cls-1" x="5.78" y="21.54" width="15.04" height="1.04"/><rect class="cls-1" x="5.78" y="25.17" width="15.04" height="1.04"/><rect class="cls-1" x="5.78" y="28.8" width="8.82" height="1.04"/></g></svg>