<?xml version="1.0" encoding="UTF-8"?><svg id="Capa_2" xmlns="http://www.w3.org/2000/svg" viewBox="0 0 44.05 25.31"><defs><style>.cls-1{fill:#fff;stroke-width:0px;}</style></defs><g id="Capa_3"><path class="cls-1" d="m39.19,13.76c4.34,2.63,5.23,6.65,4.73,11.31h-3.06c0-1.12.03-2.22,0-3.32-.15-4.27-4.48-7.14-8.47-5.64-.18.07-.35.16-.42.2.36,2.9.71,5.71,1.07,8.63-1.07.13-2.06.25-3.13.38-.27-2.24-.47-4.42-.79-6.57-.54-3.63-3.52-6.18-7.13-6.17-3.55.01-6.53,2.56-7.06,6.13-.32,2.16-.53,4.34-.79,6.6-1.05-.12-2.03-.23-3.13-.36.36-2.9.71-5.71,1.06-8.57-3.06-1.93-7.78.2-8.68,4.09-.22.94-.17,1.95-.22,2.92-.03.55,0,1.1,0,1.7H.18c-.57-4.47.07-8.3,4.63-11.35-1.23-1.57-1.9-3.32-1.54-5.35.24-1.36.85-2.53,1.85-3.49,2-1.91,4.92-2.29,7.36-.97,2.64,1.43,3.59,3.94,2.92,7.83.65-.42,1.27-.83,1.89-1.23-2.21-3.55-1.97-6.79.66-9.02,2.41-2.05,5.9-2,8.26.1,2.54,2.26,2.75,5.52.53,8.9.62.41,1.23.81,2,1.32-.57-1.74-.61-3.33.08-4.89.68-1.54,1.79-2.64,3.33-3.3,2.55-1.09,5.54-.34,7.28,1.8,1.96,2.41,1.9,5.26-.24,8.32Zm-14.04-7.51c-.02-1.7-1.45-3.11-3.15-3.1-1.71,0-3.12,1.42-3.13,3.13,0,1.74,1.45,3.19,3.2,3.15,1.7-.03,3.1-1.47,3.08-3.18Zm-12.57,3.26c.04-1.7-1.33-3.17-3.03-3.22-1.71-.06-3.18,1.3-3.24,3.01-.07,1.75,1.34,3.24,3.08,3.27,1.7.03,3.15-1.36,3.2-3.06Zm25.14-.12c-.02-1.7-1.45-3.11-3.15-3.1-1.71,0-3.12,1.42-3.12,3.13,0,1.74,1.46,3.18,3.2,3.15,1.7-.03,3.09-1.48,3.07-3.18Z"/></g></svg>