<?xml version="1.0" encoding="UTF-8"?><svg id="Capa_2" xmlns="http://www.w3.org/2000/svg" viewBox="0 0 39.5 39.5"><defs><style>.cls-1{fill:#fff;stroke-width:0px;}</style></defs><g id="Capa_3"><path class="cls-1" d="m38.74,21.97c-.28-.23-6.74-5.42-16.91-4.3C22.95,7.5,17.77,1.04,17.53.76c-.73-.89-2.04-1.02-2.93-.29-.89.73-1.02,2.04-.29,2.93.05.06,4.64,5.78,3.25,14.81-3.09.18-6.22-.31-9.34-1.48-3.01-1.12-4.88-2.48-4.9-2.49-.92-.68-2.23-.49-2.91.43-.68.92-.49,2.23.43,2.91.31.23,6.62,4.82,15.49,4.82.25,0,.51,0,.77-.01-.28,9.27,4.57,15.95,4.8,16.26.41.55,1.04.84,1.67.84.43,0,.86-.13,1.24-.41.92-.68,1.12-1.99.43-2.91-.05-.07-4.42-6.09-3.96-14.24,3.68-.57,7.25-.23,10.61,1.03,2.63.98,4.16,2.19,4.2,2.22.39.31.85.47,1.31.47.6,0,1.2-.26,1.61-.76.73-.89.6-2.2-.29-2.93Z"/><path class="cls-1" d="m25.86,30.77c.27,0,.53-.1.74-.3l4.05-4.05c.41-.41.41-1.07,0-1.47-.41-.41-1.07-.41-1.47,0l-4.05,4.05c-.41.41-.41,1.07,0,1.47.2.2.47.3.74.3Z"/><path class="cls-1" d="m26.13,23.35c-.41-.41-1.07-.41-1.47,0l-1.13,1.13c-.41.41-.41,1.07,0,1.47.2.2.47.3.74.3s.53-.1.74-.3l1.13-1.13c.41-.41.41-1.07,0-1.47Z"/><path class="cls-1" d="m33.4,26.72l-6.68,6.68c-.41.41-.41,1.07,0,1.47.2.2.47.3.74.3s.53-.1.74-.3l6.68-6.68c.41-.41.41-1.07,0-1.47-.41-.41-1.07-.41-1.47,0Z"/><path class="cls-1" d="m13.08,8.86l-4.05,4.05c-.41.41-.41,1.07,0,1.47.2.2.47.31.74.31s.53-.1.74-.31l4.05-4.05c.41-.41.41-1.07,0-1.47-.41-.41-1.07-.41-1.47,0Z"/><path class="cls-1" d="m13.55,15.97c.2.2.47.3.74.3s.53-.1.74-.3l1.13-1.13c.41-.41.41-1.07,0-1.47-.41-.41-1.07-.41-1.47,0l-1.13,1.13c-.41.41-.41,1.07,0,1.47Z"/><path class="cls-1" d="m5.37,13.09c.27,0,.53-.1.74-.3l6.68-6.68c.41-.41.41-1.07,0-1.47-.41-.41-1.07-.41-1.47,0l-6.68,6.68c-.41.41-.41,1.07,0,1.47.2.2.47.3.74.3Z"/></g></svg>