<?xml version="1.0" encoding="UTF-8"?><svg id="Capa_2" xmlns="http://www.w3.org/2000/svg" viewBox="0 0 191.37 164.58"><defs><style>.cls-1{opacity:.2;}.cls-2{fill:#ef9659;stroke-width:0px;}</style></defs><g id="Capa_1-2"><g class="cls-1"><path class="cls-2" d="m95.28,164.58c-.76,0-1.38-.62-1.38-1.38,0-6.11,4.97-11.17,11.07-11.29l14.15-.27c2.59-.05,4.75-2.02,4.92-4.49,0-.09,0-.18,0-.26,0-.29,0-.57-.02-.86-.53-15.99-13.97-28.81-30.01-28.57-14.53.22-26.64,10.8-28.78,25.16-.11.73.11,1.47.61,2.02.5.56,1.22.87,1.97.84,1.22-.05,2.22-.93,2.38-2.11,1.65-12.05,12.09-21.14,24.27-21.14,11.47,0,21.28,7.79,23.87,18.94.39,1.68-.01,3.42-1.11,4.76-1.1,1.35-2.73,2.11-4.48,2.06-2.55-.07-4.74-1.89-5.32-4.44-1.38-6.08-6.71-10.33-12.96-10.33-5.66,0-10.71,3.59-12.56,8.94-.24.69-.13,1.43.29,2.03.42.59,1.08.94,1.81.94.97,0,1.8-.63,2.13-1.59,1.26-3.64,4.71-6.09,8.56-6.09,5,0,9.06,4.07,9.06,9.06,0,.76-.62,1.38-1.38,1.38s-1.38-.62-1.38-1.38c0-3.47-2.82-6.29-6.29-6.29-2.68,0-5.07,1.7-5.95,4.23-.72,2.06-2.62,3.45-4.73,3.45-1.65,0-3.14-.76-4.09-2.1-.94-1.31-1.18-3.01-.65-4.54,2.23-6.46,8.33-10.8,15.17-10.8,7.55,0,13.98,5.13,15.65,12.48.3,1.31,1.4,2.25,2.69,2.28.9.02,1.71-.36,2.27-1.04.55-.67.75-1.54.56-2.39-2.3-9.89-11-16.8-21.17-16.8-10.81,0-20.07,8.06-21.53,18.75-.34,2.51-2.46,4.4-5.02,4.5-1.57.06-3.09-.58-4.14-1.76-1.05-1.17-1.52-2.73-1.28-4.28,2.35-15.7,15.59-27.27,31.48-27.51.16,0,.33,0,.49,0,17.31,0,31.76,13.92,32.33,31.25.01.32.02.63.02.94,0,.15,0,.31-.02.47-.27,3.89-3.62,6.99-7.63,7.07l-14.14.27c-4.61.09-8.36,3.91-8.36,8.52,0,.76-.62,1.38-1.38,1.38Z"/><path class="cls-2" d="m55.97,148.05H15.6c-.8,0-1.44-.65-1.44-1.44s.65-1.44,1.44-1.44h40.37c.8,0,1.44.65,1.44,1.44s-.65,1.44-1.44,1.44Z"/><path class="cls-2" d="m18.4,135.87c-.08,0-.16,0-.24-.02l-10.26-1.69c-.79-.13-1.32-.87-1.19-1.66.13-.79.87-1.32,1.66-1.19l10.26,1.69c.79.13,1.32.87,1.19,1.66-.12.71-.73,1.21-1.42,1.21Z"/><path class="cls-2" d="m55.97,142.05c-.08,0-.16,0-.24-.02l-28.12-4.63c-.79-.13-1.32-.87-1.19-1.66.13-.79.87-1.32,1.66-1.19l28.12,4.63c.79.13,1.32.87,1.19,1.66-.12.71-.73,1.21-1.42,1.21Z"/><path class="cls-2" d="m57.72,135.66c-.17,0-.34-.03-.5-.09L2.32,115.18c-.75-.28-1.13-1.11-.85-1.86.28-.75,1.11-1.13,1.86-.85l54.9,20.39c.75.28,1.13,1.11.85,1.86-.22.58-.77.94-1.35.94Z"/><path class="cls-2" d="m10.99,100.39c-.25,0-.5-.06-.72-.2l-9.55-5.55c-.69-.4-.92-1.28-.52-1.97.4-.69,1.28-.92,1.97-.52l9.55,5.55c.69.4.92,1.28.52,1.97-.27.46-.75.72-1.25.72Z"/><path class="cls-2" d="m60.34,129.05c-.25,0-.5-.06-.72-.2l-39.65-23.03c-.69-.4-.92-1.28-.52-1.97.4-.69,1.29-.92,1.97-.52l39.65,23.03c.69.4.92,1.28.52,1.97-.27.46-.75.72-1.25.72Z"/><path class="cls-2" d="m64.77,122.99c-.33,0-.66-.11-.93-.34L3.92,72.33c-.61-.51-.69-1.42-.18-2.03.51-.61,1.43-.69,2.03-.18l59.92,50.33c.61.51.69,1.42.18,2.03-.29.34-.69.52-1.11.52Z"/><path class="cls-2" d="m20.7,59.33c-.41,0-.83-.18-1.11-.52l-7.17-8.63c-.51-.61-.43-1.52.19-2.03.61-.51,1.52-.43,2.03.19l7.17,8.63c.51.61.43,1.52-.19,2.03-.27.22-.6.33-.92.33Z"/><path class="cls-2" d="m69.56,118.14c-.41,0-.83-.18-1.11-.52l-42.4-51.02c-.51-.61-.43-1.52.19-2.03.61-.51,1.52-.43,2.03.19l42.4,51.02c.51.61.43,1.52-.19,2.03-.27.22-.6.33-.92.33Z"/><path class="cls-2" d="m75.7,114.35c-.5,0-.99-.26-1.25-.72L26.59,30.59c-.4-.69-.16-1.57.53-1.97.69-.4,1.57-.16,1.97.53l47.86,83.03c.4.69.16,1.57-.53,1.97-.23.13-.47.19-.72.19Z"/><path class="cls-2" d="m51.29,27.31c-.59,0-1.14-.36-1.36-.95l-4.09-11.15c-.27-.75.11-1.58.86-1.85.75-.27,1.58.11,1.85.86l4.09,11.15c.27.75-.11,1.58-.86,1.85-.16.06-.33.09-.5.09Z"/><path class="cls-2" d="m82.17,111.61c-.59,0-1.14-.36-1.36-.95l-27.21-74.27c-.27-.75.11-1.58.86-1.85.75-.27,1.58.11,1.85.86l27.21,74.27c.27.75-.11,1.58-.86,1.85-.16.06-.33.09-.5.09Z"/><path class="cls-2" d="m88.87,110.21c-.69,0-1.3-.49-1.42-1.19L69.17,5.06c-.14-.79.39-1.53,1.17-1.67.79-.14,1.53.39,1.67,1.17l18.28,103.95c.14.79-.39,1.53-1.17,1.67-.08.01-.17.02-.25.02Z"/><path class="cls-2" d="m175.77,148.05h-42.12c-.8,0-1.44-.65-1.44-1.44s.65-1.44,1.44-1.44h42.12c.8,0,1.44.65,1.44,1.44s-.65,1.44-1.44,1.44Z"/><path class="cls-2" d="m172.27,135.87c-.69,0-1.31-.5-1.42-1.21-.13-.79.4-1.53,1.19-1.66l10.26-1.69c.78-.13,1.53.4,1.66,1.19.13.79-.4,1.53-1.19,1.66l-10.26,1.69c-.08.01-.16.02-.24.02Z"/><path class="cls-2" d="m133.19,142.3c-.69,0-1.31-.5-1.42-1.21-.13-.79.4-1.53,1.19-1.66l29.63-4.88c.78-.13,1.53.4,1.66,1.19.13.79-.4,1.53-1.19,1.66l-29.63,4.88c-.08.01-.16.02-.24.02Z"/><path class="cls-2" d="m131.87,136.32c-.59,0-1.14-.36-1.35-.94-.28-.75.1-1.58.85-1.86l56.68-21.05c.75-.28,1.58.1,1.86.85s-.1,1.58-.85,1.86l-56.68,21.05c-.17.06-.34.09-.5.09Z"/><path class="cls-2" d="m180.37,100.39c-.5,0-.98-.26-1.25-.72-.4-.69-.17-1.57.52-1.97l9.55-5.55c.69-.4,1.57-.17,1.97.52.4.69.17,1.57-.52,1.97l-9.55,5.55c-.23.13-.48.2-.72.2Z"/><path class="cls-2" d="m128.94,130.26c-.5,0-.98-.26-1.25-.72-.4-.69-.17-1.57.52-1.97l41.73-24.24c.69-.4,1.57-.17,1.97.52s.17,1.57-.52,1.97l-41.73,24.24c-.23.13-.48.2-.72.2Z"/><path class="cls-2" d="m125.05,124.3c-.41,0-.82-.18-1.11-.52-.51-.61-.43-1.52.18-2.03l61.47-51.63c.61-.51,1.52-.43,2.03.18.51.61.43,1.52-.18,2.03l-61.47,51.63c-.27.23-.6.34-.93.34Z"/><path class="cls-2" d="m170.67,59.33c-.33,0-.65-.11-.92-.33-.61-.51-.7-1.42-.19-2.03l7.17-8.63c.51-.61,1.42-.7,2.03-.19.61.51.7,1.42.19,2.03l-7.17,8.63c-.29.34-.7.52-1.11.52Z"/><path class="cls-2" d="m120.78,119.38c-.33,0-.65-.11-.92-.33-.61-.51-.7-1.42-.19-2.03l43.43-52.26c.51-.61,1.42-.7,2.03-.19.61.51.7,1.42.19,2.03l-43.43,52.26c-.29.34-.7.52-1.11.52Z"/><path class="cls-2" d="m114.99,115.52c-.24,0-.49-.06-.72-.19-.69-.4-.93-1.28-.53-1.97l48.53-84.2c.4-.69,1.28-.93,1.97-.53.69.4.93,1.28.53,1.97l-48.53,84.2c-.27.46-.75.72-1.25.72Z"/><path class="cls-2" d="m140.08,27.31c-.17,0-.33-.03-.5-.09-.75-.27-1.13-1.1-.86-1.85l4.09-11.15c.27-.75,1.1-1.13,1.85-.86.75.27,1.13,1.1.86,1.85l-4.09,11.15c-.21.58-.77.95-1.36.95Z"/><path class="cls-2" d="m108.95,112.27c-.17,0-.33-.03-.5-.09-.75-.27-1.13-1.1-.86-1.85l27.45-74.94c.27-.75,1.1-1.13,1.85-.86.75.27,1.13,1.1.86,1.85l-27.45,74.94c-.21.58-.77.95-1.36.95Z"/><path class="cls-2" d="m102.5,110.21c-.08,0-.17,0-.25-.02-.79-.14-1.31-.89-1.17-1.67L119.35,4.56c.14-.79.89-1.31,1.67-1.17.79.14,1.31.89,1.17,1.67l-18.28,103.95c-.12.7-.73,1.19-1.42,1.19Z"/><path class="cls-2" d="m95.8,15.28c-.8,0-1.44-.65-1.44-1.44V1.44c0-.8.65-1.44,1.44-1.44s1.44.65,1.44,1.44v12.39c0,.8-.65,1.44-1.44,1.44Z"/><path class="cls-2" d="m95.8,109.43c-.8,0-1.44-.65-1.44-1.44V24.53c0-.8.65-1.44,1.44-1.44s1.44.65,1.44,1.44v83.46c0,.8-.65,1.44-1.44,1.44Z"/></g></g></svg>